%
M48
M72
T01C0.0157
T02C0.0197
T03C0.0400
T04C0.0910
%
T01
X1430Y2019
X5149Y2363
X5149Y2675
X6711Y2675
X6711Y2363
X5180Y1769
X5930Y1300
X6305Y1456
X5555Y863
X6680Y3269
X6805Y3769
X3930Y4519
T02
X4680Y4769
X5774Y3956
X7374Y4019
X8680Y4394
X7680Y4769
X6680Y6019
X5930Y6019
X4680Y6519
X11180Y3519
X10180Y2269
T03
X10680Y1269
X11680Y1269
X1180Y3769
X1180Y4769
T04
X13749Y6854
X13749Y1684
M30
