G75*
G70*
%OFA0B0*%
%FSLAX24Y24*%
%IPPOS*%
%LPD*%
%AMOC8*
5,1,8,0,0,1.08239X$1,22.5*
%
%ADD10R,0.0592X0.0671*%
%ADD11R,0.0380X0.0380*%
%ADD12R,0.0867X0.0671*%
%ADD13C,0.0680*%
%ADD14C,0.1390*%
%ADD15R,0.1261X0.0434*%
%ADD16R,0.2954X0.1123*%
%ADD17R,0.1419X0.0828*%
%ADD18R,0.0710X0.0540*%
%ADD19R,0.0720X0.0060*%
%ADD20C,0.0039*%
%ADD21C,0.0118*%
D10*
X002556Y004644D03*
X003304Y004644D03*
D11*
X003930Y005469D03*
X003355Y005769D03*
X002755Y005769D03*
X002230Y005769D03*
X001630Y005769D03*
X003930Y006069D03*
X004680Y006069D03*
X004680Y005469D03*
X005305Y004819D03*
X005305Y004219D03*
X007380Y003613D03*
X007980Y003613D03*
X009318Y003769D03*
X009918Y003769D03*
X010680Y003719D03*
X010680Y004319D03*
X010680Y004969D03*
X010680Y005569D03*
X009336Y005006D03*
X009336Y004406D03*
X007974Y002956D03*
X007374Y002956D03*
X010818Y002269D03*
X011418Y002269D03*
X007430Y006969D03*
X006680Y006969D03*
X005930Y006969D03*
X005180Y006969D03*
X005180Y007569D03*
X005930Y007569D03*
X006680Y007569D03*
X007430Y007569D03*
D12*
X007555Y002234D03*
X007555Y001053D03*
D13*
X010680Y001269D03*
X011680Y001269D03*
X001180Y003769D03*
X001180Y004769D03*
D14*
X013749Y006854D03*
X013749Y001684D03*
D15*
X012091Y002891D03*
X012091Y003875D03*
X012091Y004662D03*
X012091Y005647D03*
D16*
X003430Y001603D03*
X003430Y003434D03*
D17*
X009180Y002661D03*
X009180Y001126D03*
D18*
X003930Y006719D03*
X002930Y006719D03*
X001930Y006719D03*
X001930Y007319D03*
X002930Y007319D03*
X003930Y007319D03*
D19*
X003930Y007019D03*
X002930Y007019D03*
X001930Y007019D03*
D20*
X005497Y003247D02*
X005517Y003247D01*
X005517Y002952D01*
X005536Y002952D01*
X005536Y003247D01*
X005556Y003247D01*
X005556Y002952D01*
X005576Y002952D01*
X005576Y003247D01*
X005556Y003247D01*
X005536Y003247D02*
X005517Y003247D01*
X005497Y003247D02*
X005497Y002952D01*
X005517Y002952D01*
X005536Y002952D02*
X005556Y002952D01*
X005694Y002952D02*
X005713Y002952D01*
X005713Y003247D01*
X005733Y003247D01*
X005733Y002952D01*
X005753Y002952D01*
X005753Y003247D01*
X005773Y003247D01*
X005773Y002952D01*
X005753Y002952D01*
X005733Y002952D02*
X005713Y002952D01*
X005694Y002952D02*
X005694Y003247D01*
X005713Y003247D01*
X005733Y003247D02*
X005753Y003247D01*
X005891Y003247D02*
X005910Y003247D01*
X005910Y002952D01*
X005930Y002952D01*
X005930Y003247D01*
X005950Y003247D01*
X005950Y002952D01*
X005969Y002952D01*
X005969Y003247D01*
X005950Y003247D01*
X005930Y003247D02*
X005910Y003247D01*
X005891Y003247D02*
X005891Y002952D01*
X005910Y002952D01*
X005930Y002952D02*
X005950Y002952D01*
X006087Y002952D02*
X006107Y002952D01*
X006107Y003247D01*
X006127Y003247D01*
X006127Y002952D01*
X006147Y002952D01*
X006147Y003247D01*
X006166Y003247D01*
X006166Y002952D01*
X006147Y002952D01*
X006127Y002952D02*
X006107Y002952D01*
X006087Y002952D02*
X006087Y003247D01*
X006107Y003247D01*
X006127Y003247D02*
X006147Y003247D01*
X006284Y003247D02*
X006304Y003247D01*
X006304Y002952D01*
X006324Y002952D01*
X006324Y003247D01*
X006343Y003247D01*
X006343Y002952D01*
X006363Y002952D01*
X006363Y003247D01*
X006343Y003247D01*
X006324Y003247D02*
X006304Y003247D01*
X006284Y003247D02*
X006284Y002952D01*
X006304Y002952D01*
X006324Y002952D02*
X006343Y002952D01*
X006343Y002086D02*
X006343Y001790D01*
X006363Y001790D01*
X006363Y002086D01*
X006343Y002086D01*
X006324Y002086D01*
X006324Y001790D01*
X006343Y001790D01*
X006324Y001790D02*
X006304Y001790D01*
X006304Y002086D01*
X006324Y002086D01*
X006304Y002086D02*
X006284Y002086D01*
X006284Y001790D01*
X006304Y001790D01*
X006166Y001790D02*
X006166Y002086D01*
X006147Y002086D01*
X006147Y001790D01*
X006166Y001790D01*
X006147Y001790D02*
X006127Y001790D01*
X006127Y002086D01*
X006147Y002086D01*
X006127Y002086D02*
X006107Y002086D01*
X006107Y001790D01*
X006127Y001790D01*
X006107Y001790D02*
X006087Y001790D01*
X006087Y002086D01*
X006107Y002086D01*
X005969Y002086D02*
X005969Y001790D01*
X005950Y001790D01*
X005950Y002086D01*
X005969Y002086D01*
X005950Y002086D02*
X005930Y002086D01*
X005930Y001790D01*
X005950Y001790D01*
X005930Y001790D02*
X005910Y001790D01*
X005910Y002086D01*
X005930Y002086D01*
X005910Y002086D02*
X005891Y002086D01*
X005891Y001790D01*
X005910Y001790D01*
X005773Y001790D02*
X005773Y002086D01*
X005753Y002086D01*
X005753Y001790D01*
X005773Y001790D01*
X005753Y001790D02*
X005733Y001790D01*
X005733Y002086D01*
X005753Y002086D01*
X005733Y002086D02*
X005713Y002086D01*
X005713Y001790D01*
X005733Y001790D01*
X005713Y001790D02*
X005694Y001790D01*
X005694Y002086D01*
X005713Y002086D01*
X005576Y002086D02*
X005576Y001790D01*
X005556Y001790D01*
X005556Y002086D01*
X005576Y002086D01*
X005556Y002086D02*
X005536Y002086D01*
X005536Y001790D01*
X005556Y001790D01*
X005536Y001790D02*
X005517Y001790D01*
X005517Y002086D01*
X005536Y002086D01*
X005517Y002086D02*
X005497Y002086D01*
X005497Y001790D01*
X005517Y001790D01*
D21*
X005497Y002283D02*
X005497Y002342D01*
X006363Y002342D01*
X006363Y002401D01*
X005497Y002401D01*
X005497Y002460D01*
X006363Y002460D01*
X006363Y002519D01*
X005497Y002519D01*
X005497Y002578D01*
X006363Y002578D01*
X006363Y002637D01*
X005497Y002637D01*
X005497Y002696D01*
X006363Y002696D01*
X006363Y002637D02*
X006363Y002755D01*
X005497Y002755D01*
X005497Y002696D01*
X005497Y002637D02*
X005497Y002578D01*
X005497Y002519D02*
X005497Y002460D01*
X005497Y002401D02*
X005497Y002342D01*
X005497Y002283D02*
X006363Y002283D01*
X006363Y002342D01*
X006363Y002401D02*
X006363Y002460D01*
X006363Y002519D02*
X006363Y002578D01*
M02*
