G75*
G70*
%OFA0B0*%
%FSLAX24Y24*%
%IPPOS*%
%LPD*%
%AMOC8*
5,1,8,0,0,1.08239X$1,22.5*
%
%ADD10R,0.0512X0.0591*%
%ADD11R,0.0300X0.0300*%
%ADD12R,0.0787X0.0591*%
%ADD13R,0.1181X0.0354*%
%ADD14R,0.2874X0.1043*%
%ADD15R,0.1339X0.0748*%
%ADD16R,0.0630X0.0460*%
%ADD17C,0.0039*%
%ADD18R,0.0118X0.0197*%
D10*
X002556Y004644D03*
X003304Y004644D03*
D11*
X003930Y005469D03*
X003355Y005769D03*
X002755Y005769D03*
X002230Y005769D03*
X001630Y005769D03*
X003930Y006069D03*
X004680Y006069D03*
X004680Y005469D03*
X005305Y004819D03*
X005305Y004219D03*
X007380Y003613D03*
X007980Y003613D03*
X009318Y003769D03*
X009918Y003769D03*
X010680Y003719D03*
X010680Y004319D03*
X010680Y004969D03*
X010680Y005569D03*
X009336Y005006D03*
X009336Y004406D03*
X007974Y002956D03*
X007374Y002956D03*
X010818Y002269D03*
X011418Y002269D03*
X007430Y006969D03*
X006680Y006969D03*
X005930Y006969D03*
X005180Y006969D03*
X005180Y007569D03*
X005930Y007569D03*
X006680Y007569D03*
X007430Y007569D03*
D12*
X007555Y002234D03*
X007555Y001053D03*
D13*
X012091Y002891D03*
X012091Y003875D03*
X012091Y004662D03*
X012091Y005647D03*
D14*
X003430Y001603D03*
X003430Y003434D03*
D15*
X009180Y002661D03*
X009180Y001126D03*
D16*
X003930Y006719D03*
X002930Y006719D03*
X001930Y006719D03*
X001930Y007319D03*
X002930Y007319D03*
X003930Y007319D03*
D17*
X005509Y003235D02*
X005509Y002964D01*
X005536Y002964D01*
X005536Y003235D01*
X005509Y003235D02*
X005564Y003235D01*
X005564Y002964D01*
X005536Y002964D01*
X005706Y002964D02*
X005706Y003235D01*
X005761Y003235D01*
X005761Y002964D01*
X005733Y002964D01*
X005733Y003235D01*
X005902Y003235D02*
X005902Y002964D01*
X005930Y002964D01*
X005930Y003235D01*
X005958Y003235D02*
X005958Y002964D01*
X005930Y002964D01*
X006099Y002964D02*
X006099Y003235D01*
X006154Y003235D01*
X006154Y002964D01*
X006127Y002964D01*
X006127Y003235D01*
X006296Y003235D02*
X006296Y002964D01*
X006324Y002964D01*
X006324Y003235D01*
X006351Y003235D02*
X006351Y002964D01*
X006324Y002964D01*
X006127Y002964D02*
X006099Y002964D01*
X005733Y002964D02*
X005706Y002964D01*
X005902Y003235D02*
X005958Y003235D01*
X006296Y003235D02*
X006351Y003235D01*
X006351Y002074D02*
X006351Y001802D01*
X006324Y001802D01*
X006324Y002074D01*
X006351Y002074D02*
X006296Y002074D01*
X006296Y001802D01*
X006324Y001802D01*
X006154Y001802D02*
X006127Y001802D01*
X006127Y002074D01*
X006154Y002074D02*
X006154Y001802D01*
X006127Y001802D02*
X006099Y001802D01*
X006099Y002074D01*
X006154Y002074D01*
X005958Y002074D02*
X005958Y001802D01*
X005930Y001802D01*
X005930Y002074D01*
X005902Y002074D02*
X005902Y001802D01*
X005930Y001802D01*
X005761Y001802D02*
X005733Y001802D01*
X005733Y002074D01*
X005706Y002074D02*
X005706Y001802D01*
X005733Y001802D01*
X005761Y001802D02*
X005761Y002074D01*
X005706Y002074D01*
X005564Y002074D02*
X005564Y001802D01*
X005536Y001802D01*
X005536Y002074D01*
X005509Y002074D02*
X005509Y001802D01*
X005536Y001802D01*
X005509Y002074D02*
X005564Y002074D01*
X005902Y002074D02*
X005958Y002074D01*
D18*
X005930Y002381D03*
X005733Y002381D03*
X005556Y002381D03*
X005556Y002657D03*
X005733Y002657D03*
X005930Y002657D03*
X006127Y002657D03*
X006304Y002657D03*
X006304Y002381D03*
X006127Y002381D03*
M02*
