G75*
G70*
%OFA0B0*%
%FSLAX24Y24*%
%IPPOS*%
%LPD*%
%AMOC8*
5,1,8,0,0,1.08239X$1,22.5*
%
%ADD10C,0.0000*%
%ADD11R,0.0512X0.0591*%
%ADD12R,0.0300X0.0300*%
%ADD13R,0.0787X0.0591*%
%ADD14C,0.0600*%
%ADD15C,0.1310*%
%ADD16R,0.1181X0.0354*%
%ADD17R,0.2874X0.1043*%
%ADD18R,0.1339X0.0748*%
%ADD19R,0.0630X0.0460*%
%ADD20C,0.0118*%
%ADD21C,0.0035*%
%ADD22C,0.0160*%
%ADD23C,0.0277*%
%ADD24C,0.0120*%
%ADD25C,0.0317*%
%ADD26C,0.0110*%
%ADD27C,0.0240*%
%ADD28C,0.0200*%
%ADD29C,0.0320*%
%ADD30C,0.0130*%
%ADD31C,0.0100*%
D10*
X001430Y000269D02*
X016680Y000269D01*
X016740Y000271D01*
X016801Y000276D01*
X016860Y000285D01*
X016919Y000298D01*
X016978Y000314D01*
X017035Y000334D01*
X017090Y000357D01*
X017145Y000384D01*
X017197Y000413D01*
X017248Y000446D01*
X017297Y000482D01*
X017343Y000520D01*
X017387Y000562D01*
X017429Y000606D01*
X017467Y000652D01*
X017503Y000701D01*
X017536Y000752D01*
X017565Y000804D01*
X017592Y000859D01*
X017615Y000914D01*
X017635Y000971D01*
X017651Y001030D01*
X017664Y001089D01*
X017673Y001148D01*
X017678Y001209D01*
X017680Y001269D01*
X017680Y007269D01*
X017678Y007329D01*
X017673Y007390D01*
X017664Y007449D01*
X017651Y007508D01*
X017635Y007567D01*
X017615Y007624D01*
X017592Y007679D01*
X017565Y007734D01*
X017536Y007786D01*
X017503Y007837D01*
X017467Y007886D01*
X017429Y007932D01*
X017387Y007976D01*
X017343Y008018D01*
X017297Y008056D01*
X017248Y008092D01*
X017197Y008125D01*
X017145Y008154D01*
X017090Y008181D01*
X017035Y008204D01*
X016978Y008224D01*
X016919Y008240D01*
X016860Y008253D01*
X016801Y008262D01*
X016740Y008267D01*
X016680Y008269D01*
X001430Y008269D01*
X001370Y008267D01*
X001309Y008262D01*
X001250Y008253D01*
X001191Y008240D01*
X001132Y008224D01*
X001075Y008204D01*
X001020Y008181D01*
X000965Y008154D01*
X000913Y008125D01*
X000862Y008092D01*
X000813Y008056D01*
X000767Y008018D01*
X000723Y007976D01*
X000681Y007932D01*
X000643Y007886D01*
X000607Y007837D01*
X000574Y007786D01*
X000545Y007734D01*
X000518Y007679D01*
X000495Y007624D01*
X000475Y007567D01*
X000459Y007508D01*
X000446Y007449D01*
X000437Y007390D01*
X000432Y007329D01*
X000430Y007269D01*
X000430Y001269D01*
X000432Y001209D01*
X000437Y001148D01*
X000446Y001089D01*
X000459Y001030D01*
X000475Y000971D01*
X000495Y000914D01*
X000518Y000859D01*
X000545Y000804D01*
X000574Y000752D01*
X000607Y000701D01*
X000643Y000652D01*
X000681Y000606D01*
X000723Y000562D01*
X000767Y000520D01*
X000813Y000482D01*
X000862Y000446D01*
X000913Y000413D01*
X000965Y000384D01*
X001020Y000357D01*
X001075Y000334D01*
X001132Y000314D01*
X001191Y000298D01*
X001250Y000285D01*
X001309Y000276D01*
X001370Y000271D01*
X001430Y000269D01*
D11*
X002556Y004644D03*
X003304Y004644D03*
D12*
X003930Y005469D03*
X003355Y005769D03*
X002755Y005769D03*
X002230Y005769D03*
X001630Y005769D03*
X003930Y006069D03*
X004680Y006069D03*
X004680Y005469D03*
X005305Y004819D03*
X005305Y004219D03*
X007380Y003613D03*
X007980Y003613D03*
X009318Y003769D03*
X009918Y003769D03*
X010680Y003719D03*
X010680Y004319D03*
X010680Y004969D03*
X010680Y005569D03*
X009336Y005006D03*
X009336Y004406D03*
X007974Y002956D03*
X007374Y002956D03*
X010818Y002269D03*
X011418Y002269D03*
X007430Y006969D03*
X006680Y006969D03*
X005930Y006969D03*
X005180Y006969D03*
X005180Y007569D03*
X005930Y007569D03*
X006680Y007569D03*
X007430Y007569D03*
D13*
X007555Y002234D03*
X007555Y001053D03*
D14*
X010680Y001269D03*
X011680Y001269D03*
X001180Y003769D03*
X001180Y004769D03*
D15*
X013749Y006854D03*
X013749Y001684D03*
D16*
X012091Y002891D03*
X012091Y003875D03*
X012091Y004662D03*
X012091Y005647D03*
D17*
X003430Y003434D03*
X003430Y001603D03*
D18*
X009180Y001126D03*
X009180Y002661D03*
D19*
X003930Y006719D03*
X002930Y006719D03*
X001930Y006719D03*
X001930Y007319D03*
X002930Y007319D03*
X003930Y007319D03*
D20*
X006363Y002755D02*
X006363Y002283D01*
X005497Y002283D01*
X005497Y002755D01*
X006363Y002755D01*
X006363Y002400D02*
X005497Y002400D01*
X005497Y002517D02*
X006363Y002517D01*
X006363Y002634D02*
X005497Y002634D01*
X005497Y002751D02*
X006363Y002751D01*
D21*
X006366Y002949D02*
X006366Y003249D01*
X006366Y002949D02*
X006282Y002949D01*
X006282Y003249D01*
X006366Y003249D01*
X006366Y002983D02*
X006282Y002983D01*
X006282Y003017D02*
X006366Y003017D01*
X006366Y003051D02*
X006282Y003051D01*
X006282Y003085D02*
X006366Y003085D01*
X006366Y003119D02*
X006282Y003119D01*
X006282Y003153D02*
X006366Y003153D01*
X006366Y003187D02*
X006282Y003187D01*
X006282Y003221D02*
X006366Y003221D01*
X006169Y003249D02*
X006169Y002949D01*
X006085Y002949D01*
X006085Y003249D01*
X006169Y003249D01*
X006169Y002983D02*
X006085Y002983D01*
X006085Y003017D02*
X006169Y003017D01*
X006169Y003051D02*
X006085Y003051D01*
X006085Y003085D02*
X006169Y003085D01*
X006169Y003119D02*
X006085Y003119D01*
X006085Y003153D02*
X006169Y003153D01*
X006169Y003187D02*
X006085Y003187D01*
X006085Y003221D02*
X006169Y003221D01*
X005972Y003249D02*
X005972Y002949D01*
X005888Y002949D01*
X005888Y003249D01*
X005972Y003249D01*
X005972Y002983D02*
X005888Y002983D01*
X005888Y003017D02*
X005972Y003017D01*
X005972Y003051D02*
X005888Y003051D01*
X005888Y003085D02*
X005972Y003085D01*
X005972Y003119D02*
X005888Y003119D01*
X005888Y003153D02*
X005972Y003153D01*
X005972Y003187D02*
X005888Y003187D01*
X005888Y003221D02*
X005972Y003221D01*
X005691Y003249D02*
X005691Y002949D01*
X005691Y003249D02*
X005775Y003249D01*
X005775Y002949D01*
X005691Y002949D01*
X005691Y002983D02*
X005775Y002983D01*
X005775Y003017D02*
X005691Y003017D01*
X005691Y003051D02*
X005775Y003051D01*
X005775Y003085D02*
X005691Y003085D01*
X005691Y003119D02*
X005775Y003119D01*
X005775Y003153D02*
X005691Y003153D01*
X005691Y003187D02*
X005775Y003187D01*
X005775Y003221D02*
X005691Y003221D01*
X005494Y003249D02*
X005494Y002949D01*
X005494Y003249D02*
X005578Y003249D01*
X005578Y002949D01*
X005494Y002949D01*
X005494Y002983D02*
X005578Y002983D01*
X005578Y003017D02*
X005494Y003017D01*
X005494Y003051D02*
X005578Y003051D01*
X005578Y003085D02*
X005494Y003085D01*
X005494Y003119D02*
X005578Y003119D01*
X005578Y003153D02*
X005494Y003153D01*
X005494Y003187D02*
X005578Y003187D01*
X005578Y003221D02*
X005494Y003221D01*
X005578Y002088D02*
X005578Y001788D01*
X005494Y001788D01*
X005494Y002088D01*
X005578Y002088D01*
X005578Y001822D02*
X005494Y001822D01*
X005494Y001856D02*
X005578Y001856D01*
X005578Y001890D02*
X005494Y001890D01*
X005494Y001924D02*
X005578Y001924D01*
X005578Y001958D02*
X005494Y001958D01*
X005494Y001992D02*
X005578Y001992D01*
X005578Y002026D02*
X005494Y002026D01*
X005494Y002060D02*
X005578Y002060D01*
X005775Y002088D02*
X005775Y001788D01*
X005691Y001788D01*
X005691Y002088D01*
X005775Y002088D01*
X005775Y001822D02*
X005691Y001822D01*
X005691Y001856D02*
X005775Y001856D01*
X005775Y001890D02*
X005691Y001890D01*
X005691Y001924D02*
X005775Y001924D01*
X005775Y001958D02*
X005691Y001958D01*
X005691Y001992D02*
X005775Y001992D01*
X005775Y002026D02*
X005691Y002026D01*
X005691Y002060D02*
X005775Y002060D01*
X005972Y002088D02*
X005972Y001788D01*
X005888Y001788D01*
X005888Y002088D01*
X005972Y002088D01*
X005972Y001822D02*
X005888Y001822D01*
X005888Y001856D02*
X005972Y001856D01*
X005972Y001890D02*
X005888Y001890D01*
X005888Y001924D02*
X005972Y001924D01*
X005972Y001958D02*
X005888Y001958D01*
X005888Y001992D02*
X005972Y001992D01*
X005972Y002026D02*
X005888Y002026D01*
X005888Y002060D02*
X005972Y002060D01*
X006169Y002088D02*
X006169Y001788D01*
X006085Y001788D01*
X006085Y002088D01*
X006169Y002088D01*
X006169Y001822D02*
X006085Y001822D01*
X006085Y001856D02*
X006169Y001856D01*
X006169Y001890D02*
X006085Y001890D01*
X006085Y001924D02*
X006169Y001924D01*
X006169Y001958D02*
X006085Y001958D01*
X006085Y001992D02*
X006169Y001992D01*
X006169Y002026D02*
X006085Y002026D01*
X006085Y002060D02*
X006169Y002060D01*
X006366Y002088D02*
X006366Y001788D01*
X006282Y001788D01*
X006282Y002088D01*
X006366Y002088D01*
X006366Y001822D02*
X006282Y001822D01*
X006282Y001856D02*
X006366Y001856D01*
X006366Y001890D02*
X006282Y001890D01*
X006282Y001924D02*
X006366Y001924D01*
X006366Y001958D02*
X006282Y001958D01*
X006282Y001992D02*
X006366Y001992D01*
X006366Y002026D02*
X006282Y002026D01*
X006282Y002060D02*
X006366Y002060D01*
D22*
X005296Y000586D02*
X001167Y000586D01*
X001094Y000609D02*
X000907Y000745D01*
X000771Y000933D01*
X000699Y001153D01*
X000690Y001269D01*
X000690Y004541D01*
X000722Y004463D01*
X000874Y004311D01*
X001059Y004234D01*
X000996Y004214D01*
X000928Y004179D01*
X000867Y004135D01*
X000814Y004081D01*
X000769Y004020D01*
X000735Y003953D01*
X000712Y003881D01*
X000700Y003807D01*
X000700Y003789D01*
X001160Y003789D01*
X001160Y003749D01*
X000700Y003749D01*
X000700Y003731D01*
X000712Y003656D01*
X000735Y003584D01*
X000769Y003517D01*
X000814Y003456D01*
X000867Y003403D01*
X000928Y003358D01*
X000996Y003324D01*
X001068Y003301D01*
X001142Y003289D01*
X001160Y003289D01*
X001160Y003749D01*
X001200Y003749D01*
X001200Y003789D01*
X001660Y003789D01*
X001660Y003807D01*
X001648Y003881D01*
X001625Y003953D01*
X001591Y004020D01*
X001546Y004081D01*
X001493Y004135D01*
X001432Y004179D01*
X001364Y004214D01*
X001301Y004234D01*
X001486Y004311D01*
X001584Y004409D01*
X001781Y004409D01*
X001851Y004339D01*
X001983Y004284D01*
X002067Y004284D01*
X002097Y004213D01*
X002113Y004196D01*
X001945Y004196D01*
X001857Y004159D01*
X001790Y004092D01*
X001753Y004003D01*
X001753Y002865D01*
X001790Y002777D01*
X001857Y002709D01*
X001945Y002672D01*
X004915Y002672D01*
X005003Y002709D01*
X005070Y002777D01*
X005107Y002865D01*
X005107Y003199D01*
X005297Y003199D01*
X005297Y003099D01*
X005297Y002924D01*
X005304Y002897D01*
X005285Y002868D01*
X005267Y002825D01*
X005258Y002779D01*
X005258Y002586D01*
X005862Y002586D01*
X005862Y002451D01*
X005258Y002451D01*
X005258Y002268D01*
X005157Y002226D01*
X005106Y002175D01*
X005070Y002261D01*
X005003Y002329D01*
X004915Y002365D01*
X001945Y002365D01*
X001857Y002329D01*
X001790Y002261D01*
X001779Y002235D01*
X001657Y002358D01*
X001510Y002419D01*
X001350Y002419D01*
X001203Y002358D01*
X001091Y002245D01*
X001030Y002098D01*
X001030Y001939D01*
X001091Y001792D01*
X001619Y001264D01*
X001753Y001209D01*
X001753Y001034D01*
X001790Y000946D01*
X001857Y000878D01*
X001945Y000842D01*
X004915Y000842D01*
X005003Y000878D01*
X005070Y000946D01*
X005107Y001034D01*
X005107Y001369D01*
X005195Y001369D01*
X005195Y000983D01*
X005176Y000938D01*
X005176Y000787D01*
X005234Y000648D01*
X005340Y000541D01*
X005371Y000529D01*
X001430Y000529D01*
X001314Y000538D01*
X001094Y000609D01*
X000908Y000744D02*
X005194Y000744D01*
X005176Y000903D02*
X005027Y000903D01*
X005107Y001061D02*
X005195Y001061D01*
X005195Y001220D02*
X005107Y001220D01*
X004430Y001769D02*
X003595Y001769D01*
X003430Y001603D01*
X001859Y002329D02*
X001685Y002329D01*
X001175Y002329D02*
X000690Y002329D01*
X000690Y002171D02*
X001060Y002171D01*
X001030Y002012D02*
X000690Y002012D01*
X000690Y001854D02*
X001065Y001854D01*
X001188Y001695D02*
X000690Y001695D01*
X000690Y001537D02*
X001346Y001537D01*
X001505Y001378D02*
X000690Y001378D01*
X000694Y001220D02*
X001726Y001220D01*
X001753Y001061D02*
X000729Y001061D01*
X000792Y000903D02*
X001833Y000903D01*
X005001Y002329D02*
X005258Y002329D01*
X005862Y002488D02*
X000690Y002488D01*
X000690Y002646D02*
X005258Y002646D01*
X005180Y002706D02*
X005149Y002675D01*
X005180Y002706D02*
X005180Y003019D01*
X005261Y003099D01*
X005297Y003099D02*
X005434Y003099D01*
X005434Y003099D01*
X005297Y003099D01*
X005297Y003122D02*
X005107Y003122D01*
X005107Y002963D02*
X005297Y002963D01*
X005263Y002805D02*
X005082Y002805D01*
X005998Y002586D02*
X005998Y002451D01*
X006602Y002451D01*
X006602Y002259D01*
X006593Y002213D01*
X006575Y002169D01*
X006556Y002140D01*
X006563Y002114D01*
X006563Y001938D01*
X006426Y001938D01*
X006426Y001938D01*
X006563Y001938D01*
X006563Y001762D01*
X006557Y001740D01*
X006626Y001671D01*
X006684Y001532D01*
X006684Y001381D01*
X006636Y001265D01*
X006726Y001355D01*
X006858Y001410D01*
X006927Y001410D01*
X006958Y001484D01*
X007025Y001552D01*
X007114Y001588D01*
X007763Y001588D01*
X007933Y001759D01*
X007623Y001759D01*
X007623Y002167D01*
X007487Y002167D01*
X006981Y002167D01*
X006981Y001915D01*
X006994Y001870D01*
X007017Y001828D01*
X007051Y001795D01*
X007092Y001771D01*
X007138Y001759D01*
X007487Y001759D01*
X007487Y002167D01*
X007487Y002302D01*
X006981Y002302D01*
X006981Y002553D01*
X006994Y002599D01*
X007017Y002640D01*
X007034Y002657D01*
X007020Y002670D01*
X006984Y002759D01*
X006984Y003037D01*
X006895Y002948D01*
X006755Y002890D01*
X006733Y002890D01*
X006683Y002841D01*
X006597Y002805D01*
X006602Y002779D01*
X006602Y002586D01*
X005998Y002586D01*
X005998Y002488D02*
X006981Y002488D01*
X006981Y002329D02*
X006602Y002329D01*
X006576Y002171D02*
X007487Y002171D01*
X007487Y002012D02*
X007623Y002012D01*
X007623Y001854D02*
X007487Y001854D01*
X007870Y001695D02*
X006602Y001695D01*
X006563Y001854D02*
X007003Y001854D01*
X006981Y002012D02*
X006563Y002012D01*
X006682Y001537D02*
X007010Y001537D01*
X006782Y001378D02*
X006683Y001378D01*
X008542Y001740D02*
X008542Y002047D01*
X009840Y002047D01*
X009842Y002043D01*
X009954Y001931D01*
X010101Y001870D01*
X010259Y001870D01*
X010352Y001909D01*
X010547Y001909D01*
X010620Y001879D01*
X010781Y001879D01*
X010711Y001809D01*
X010573Y001809D01*
X010374Y001727D01*
X010222Y001575D01*
X010140Y001376D01*
X010140Y001161D01*
X010222Y000963D01*
X010374Y000811D01*
X010573Y000729D01*
X010787Y000729D01*
X010986Y000811D01*
X011138Y000963D01*
X011180Y001065D01*
X011222Y000963D01*
X011374Y000811D01*
X011573Y000729D01*
X011787Y000729D01*
X011986Y000811D01*
X012138Y000963D01*
X012220Y001161D01*
X012220Y001376D01*
X012138Y001575D01*
X011986Y001727D01*
X011787Y001809D01*
X011729Y001809D01*
X011735Y001815D01*
X011790Y001947D01*
X011790Y001949D01*
X012744Y001949D01*
X012861Y001997D01*
X012945Y002081D01*
X012854Y001862D01*
X012854Y001506D01*
X012990Y001177D01*
X013242Y000925D01*
X013571Y000789D01*
X013927Y000789D01*
X014256Y000925D01*
X014508Y001177D01*
X014644Y001506D01*
X014644Y001862D01*
X014508Y002191D01*
X014256Y002442D01*
X013927Y002579D01*
X013571Y002579D01*
X013352Y002488D01*
X013451Y002587D01*
X013500Y002705D01*
X013500Y005832D01*
X013451Y005950D01*
X013361Y006040D01*
X013352Y006049D01*
X013571Y005959D01*
X013927Y005959D01*
X014256Y006095D01*
X014508Y006347D01*
X014644Y006676D01*
X014644Y007032D01*
X014508Y007361D01*
X014256Y007612D01*
X013927Y007749D01*
X013571Y007749D01*
X013242Y007612D01*
X012990Y007361D01*
X012854Y007032D01*
X012854Y006676D01*
X012945Y006457D01*
X012611Y006790D01*
X012494Y006839D01*
X009866Y006839D01*
X009749Y006790D01*
X009047Y006089D01*
X007366Y006089D01*
X007249Y006040D01*
X007159Y005950D01*
X007047Y005839D01*
X006287Y005839D01*
X006328Y005939D01*
X006328Y006098D01*
X006268Y006244D01*
X006250Y006262D01*
X006250Y006649D01*
X006361Y006649D01*
X006394Y006615D01*
X006482Y006579D01*
X006878Y006579D01*
X006966Y006615D01*
X007033Y006683D01*
X007070Y006771D01*
X007070Y007166D01*
X007036Y007249D01*
X007111Y007249D01*
X007134Y007226D01*
X007112Y007188D01*
X007100Y007142D01*
X007100Y006969D01*
X007430Y006969D01*
X007760Y006969D01*
X007760Y007142D01*
X007748Y007188D01*
X007726Y007226D01*
X007783Y007283D01*
X007820Y007371D01*
X007820Y007766D01*
X007783Y007855D01*
X007716Y007922D01*
X007628Y007959D01*
X007232Y007959D01*
X007144Y007922D01*
X007111Y007889D01*
X006999Y007889D01*
X006966Y007922D01*
X006878Y007959D01*
X006482Y007959D01*
X006394Y007922D01*
X006327Y007855D01*
X006305Y007803D01*
X006283Y007855D01*
X006216Y007922D01*
X006128Y007959D01*
X005732Y007959D01*
X005644Y007922D01*
X005611Y007889D01*
X005499Y007889D01*
X005466Y007922D01*
X005378Y007959D01*
X004982Y007959D01*
X004894Y007922D01*
X004827Y007855D01*
X004790Y007766D01*
X004790Y007371D01*
X004827Y007283D01*
X004841Y007269D01*
X004827Y007255D01*
X004790Y007166D01*
X004790Y006771D01*
X004827Y006683D01*
X004860Y006649D01*
X004860Y006397D01*
X004854Y006399D01*
X004680Y006399D01*
X004506Y006399D01*
X004463Y006387D01*
X004485Y006441D01*
X004485Y006996D01*
X004476Y007019D01*
X004485Y007041D01*
X004485Y007596D01*
X004448Y007685D01*
X004381Y007752D01*
X004293Y007789D01*
X003567Y007789D01*
X003479Y007752D01*
X003430Y007703D01*
X003381Y007752D01*
X003293Y007789D01*
X002567Y007789D01*
X002479Y007752D01*
X002430Y007703D01*
X002381Y007752D01*
X002293Y007789D01*
X001567Y007789D01*
X001479Y007752D01*
X001412Y007685D01*
X001388Y007629D01*
X001358Y007629D01*
X001226Y007574D01*
X000875Y007223D01*
X000820Y007090D01*
X000820Y005172D01*
X000722Y005075D01*
X000690Y004997D01*
X000690Y007269D01*
X000699Y007385D01*
X000771Y007605D01*
X000907Y007792D01*
X001094Y007928D01*
X001314Y008000D01*
X001430Y008009D01*
X016680Y008009D01*
X016796Y008000D01*
X017016Y007928D01*
X017203Y007792D01*
X017339Y007605D01*
X017411Y007385D01*
X017420Y007269D01*
X017420Y001269D01*
X017411Y001153D01*
X017339Y000933D01*
X017203Y000745D01*
X017016Y000609D01*
X016796Y000538D01*
X016680Y000529D01*
X009937Y000529D01*
X009985Y000549D01*
X010053Y000616D01*
X010089Y000704D01*
X010089Y001548D01*
X010053Y001636D01*
X009985Y001704D01*
X009897Y001740D01*
X008542Y001740D01*
X008542Y001854D02*
X010756Y001854D01*
X010343Y001695D02*
X009993Y001695D01*
X010089Y001537D02*
X010207Y001537D01*
X010141Y001378D02*
X010089Y001378D01*
X010089Y001220D02*
X010140Y001220D01*
X010181Y001061D02*
X010089Y001061D01*
X010089Y000903D02*
X010282Y000903D01*
X010089Y000744D02*
X010535Y000744D01*
X010825Y000744D02*
X011535Y000744D01*
X011825Y000744D02*
X017202Y000744D01*
X017318Y000903D02*
X014202Y000903D01*
X014392Y001061D02*
X017381Y001061D01*
X017416Y001220D02*
X014525Y001220D01*
X014591Y001378D02*
X017420Y001378D01*
X017420Y001537D02*
X014644Y001537D01*
X014644Y001695D02*
X017420Y001695D01*
X017420Y001854D02*
X014644Y001854D01*
X014582Y002012D02*
X017420Y002012D01*
X017420Y002171D02*
X014516Y002171D01*
X014369Y002329D02*
X017420Y002329D01*
X017420Y002488D02*
X014147Y002488D01*
X013476Y002646D02*
X017420Y002646D01*
X017420Y002805D02*
X013500Y002805D01*
X013500Y002963D02*
X017420Y002963D01*
X017420Y003122D02*
X013500Y003122D01*
X013500Y003280D02*
X017420Y003280D01*
X017420Y003439D02*
X013500Y003439D01*
X013500Y003597D02*
X017420Y003597D01*
X017420Y003756D02*
X013500Y003756D01*
X013500Y003914D02*
X017420Y003914D01*
X017420Y004073D02*
X013500Y004073D01*
X013500Y004231D02*
X017420Y004231D01*
X017420Y004390D02*
X013500Y004390D01*
X013500Y004548D02*
X017420Y004548D01*
X017420Y004707D02*
X013500Y004707D01*
X013500Y004865D02*
X017420Y004865D01*
X017420Y005024D02*
X013500Y005024D01*
X013500Y005182D02*
X017420Y005182D01*
X017420Y005341D02*
X013500Y005341D01*
X013500Y005499D02*
X017420Y005499D01*
X017420Y005658D02*
X013500Y005658D01*
X013500Y005816D02*
X017420Y005816D01*
X017420Y005975D02*
X013966Y005975D01*
X014294Y006133D02*
X017420Y006133D01*
X017420Y006292D02*
X014453Y006292D01*
X014551Y006450D02*
X017420Y006450D01*
X017420Y006609D02*
X014616Y006609D01*
X014644Y006767D02*
X017420Y006767D01*
X017420Y006926D02*
X014644Y006926D01*
X014622Y007084D02*
X017420Y007084D01*
X017420Y007243D02*
X014557Y007243D01*
X014467Y007401D02*
X017405Y007401D01*
X017354Y007560D02*
X014309Y007560D01*
X014001Y007718D02*
X017257Y007718D01*
X017087Y007877D02*
X007761Y007877D01*
X007820Y007718D02*
X013497Y007718D01*
X013189Y007560D02*
X007820Y007560D01*
X007820Y007401D02*
X013031Y007401D01*
X012941Y007243D02*
X007743Y007243D01*
X007760Y007084D02*
X012876Y007084D01*
X012854Y006926D02*
X007760Y006926D01*
X007760Y006969D02*
X007760Y006795D01*
X007748Y006749D01*
X007724Y006708D01*
X007691Y006675D01*
X007649Y006651D01*
X007604Y006639D01*
X007430Y006639D01*
X007430Y006969D01*
X007430Y006969D01*
X007430Y006969D01*
X007760Y006969D01*
X007753Y006767D02*
X009726Y006767D01*
X009567Y006609D02*
X006950Y006609D01*
X007136Y006708D02*
X007169Y006675D01*
X007211Y006651D01*
X007256Y006639D01*
X007430Y006639D01*
X007430Y006969D01*
X007100Y006969D01*
X007100Y006795D01*
X007112Y006749D01*
X007136Y006708D01*
X007107Y006767D02*
X007068Y006767D01*
X007070Y006926D02*
X007100Y006926D01*
X007100Y007084D02*
X007070Y007084D01*
X007038Y007243D02*
X007117Y007243D01*
X007430Y006969D02*
X007430Y006969D01*
X007430Y006926D02*
X007430Y006926D01*
X007430Y006767D02*
X007430Y006767D01*
X006680Y006969D02*
X005930Y006969D01*
X005930Y006019D01*
X006314Y006133D02*
X009092Y006133D01*
X009250Y006292D02*
X006250Y006292D01*
X006250Y006450D02*
X009409Y006450D01*
X009930Y006519D02*
X009180Y005769D01*
X007430Y005769D01*
X007180Y005519D01*
X005930Y005519D01*
X005180Y006269D01*
X005180Y006969D01*
X004790Y006926D02*
X004485Y006926D01*
X004485Y006767D02*
X004792Y006767D01*
X004860Y006609D02*
X004485Y006609D01*
X004485Y006450D02*
X004860Y006450D01*
X004680Y006399D02*
X004680Y006069D01*
X004680Y006399D01*
X004680Y006292D02*
X004680Y006292D01*
X004680Y006133D02*
X004680Y006133D01*
X004680Y006069D02*
X004680Y006069D01*
X004680Y006069D01*
X004350Y006069D01*
X004350Y006242D01*
X004359Y006276D01*
X004320Y006260D01*
X004320Y005871D01*
X004283Y005783D01*
X004271Y005770D01*
X004342Y005770D01*
X004384Y005812D01*
X004362Y005849D01*
X004350Y005895D01*
X004350Y006069D01*
X004680Y006069D01*
X004350Y006133D02*
X004320Y006133D01*
X004320Y005975D02*
X004350Y005975D01*
X004381Y005816D02*
X004297Y005816D01*
X004680Y005519D02*
X004680Y005469D01*
X004693Y005456D01*
X005430Y005456D01*
X006127Y004759D01*
X006127Y003653D01*
X006434Y003558D02*
X006447Y003589D01*
X006447Y004823D01*
X006398Y004941D01*
X006140Y005199D01*
X007244Y005199D01*
X007361Y005247D01*
X007563Y005449D01*
X009244Y005449D01*
X009361Y005497D01*
X010063Y006199D01*
X012297Y006199D01*
X012492Y006004D01*
X012099Y006004D01*
X012099Y005655D01*
X012082Y005655D01*
X012082Y005638D01*
X012099Y005638D01*
X012099Y005290D01*
X012705Y005290D01*
X012751Y005302D01*
X012792Y005326D01*
X012825Y005359D01*
X012849Y005400D01*
X012860Y005441D01*
X012860Y005000D01*
X012817Y005043D01*
X012729Y005080D01*
X011452Y005080D01*
X011364Y005043D01*
X011344Y005022D01*
X011135Y005022D01*
X011070Y005088D01*
X011070Y005166D01*
X011033Y005255D01*
X011019Y005269D01*
X011033Y005283D01*
X011070Y005371D01*
X011070Y005766D01*
X011033Y005855D01*
X010966Y005922D01*
X010878Y005959D01*
X010482Y005959D01*
X010394Y005922D01*
X010361Y005889D01*
X009823Y005889D01*
X009705Y005840D01*
X009261Y005396D01*
X009139Y005396D01*
X009050Y005360D01*
X009029Y005339D01*
X007866Y005339D01*
X007749Y005290D01*
X007659Y005200D01*
X007626Y005167D01*
X007601Y005167D01*
X007454Y005107D01*
X007342Y004994D01*
X007282Y004848D01*
X007282Y004689D01*
X007342Y004543D01*
X007454Y004431D01*
X007601Y004370D01*
X007759Y004370D01*
X007906Y004431D01*
X008018Y004543D01*
X008078Y004689D01*
X008078Y004699D01*
X008422Y004699D01*
X008342Y004619D01*
X008282Y004473D01*
X008282Y004314D01*
X008342Y004168D01*
X008454Y004056D01*
X008601Y003995D01*
X008759Y003995D01*
X008852Y004034D01*
X008955Y004034D01*
X008928Y003966D01*
X008928Y003571D01*
X008964Y003483D01*
X009032Y003415D01*
X009120Y003379D01*
X009515Y003379D01*
X009603Y003415D01*
X009661Y003473D01*
X009698Y003451D01*
X009744Y003439D01*
X009917Y003439D01*
X009918Y003439D01*
X010091Y003439D01*
X010137Y003451D01*
X010178Y003475D01*
X010212Y003508D01*
X010235Y003549D01*
X010247Y003595D01*
X010247Y003769D01*
X010247Y003942D01*
X010235Y003988D01*
X010212Y004029D01*
X010178Y004063D01*
X010137Y004086D01*
X010091Y004099D01*
X009918Y004099D01*
X009918Y003769D01*
X010247Y003769D01*
X009918Y003769D01*
X009918Y003769D01*
X009917Y003769D01*
X009917Y004099D01*
X009744Y004099D01*
X009698Y004086D01*
X009677Y004075D01*
X009677Y004108D01*
X009690Y004120D01*
X009726Y004209D01*
X009726Y004604D01*
X009690Y004692D01*
X009676Y004706D01*
X009690Y004720D01*
X009726Y004809D01*
X009726Y004956D01*
X009837Y005067D01*
X009826Y005040D01*
X009826Y004897D01*
X009881Y004765D01*
X009982Y004664D01*
X010115Y004609D01*
X010331Y004609D01*
X010327Y004605D01*
X010290Y004516D01*
X010290Y004121D01*
X010327Y004033D01*
X010384Y003976D01*
X010362Y003938D01*
X010350Y003892D01*
X010350Y003719D01*
X010680Y003719D01*
X010680Y003719D01*
X010350Y003719D01*
X010350Y003545D01*
X010362Y003499D01*
X010386Y003458D01*
X010419Y003425D01*
X010461Y003401D01*
X010506Y003389D01*
X010680Y003389D01*
X010803Y003389D01*
X010842Y003293D01*
X010884Y003251D01*
X010230Y003251D01*
X010098Y003196D01*
X010059Y003157D01*
X010053Y003171D01*
X009985Y003239D01*
X009897Y003275D01*
X008463Y003275D01*
X008375Y003239D01*
X008342Y003206D01*
X008327Y003242D01*
X008260Y003310D01*
X008240Y003318D01*
X008241Y003318D01*
X008274Y003352D01*
X008298Y003393D01*
X008310Y003439D01*
X008310Y003612D01*
X007980Y003612D01*
X007980Y003613D01*
X007980Y003942D01*
X007806Y003942D01*
X007769Y003933D01*
X007772Y003939D01*
X007772Y004098D01*
X007712Y004244D01*
X007599Y004357D01*
X007453Y004417D01*
X007295Y004417D01*
X007148Y004357D01*
X007036Y004244D01*
X006975Y004098D01*
X006975Y003939D01*
X007009Y003857D01*
X006990Y003810D01*
X006990Y003494D01*
X006895Y003590D01*
X006755Y003647D01*
X006605Y003647D01*
X006465Y003590D01*
X006434Y003558D01*
X006447Y003597D02*
X006483Y003597D01*
X006447Y003756D02*
X006990Y003756D01*
X006986Y003914D02*
X006447Y003914D01*
X006447Y004073D02*
X006975Y004073D01*
X007031Y004231D02*
X006447Y004231D01*
X006447Y004390D02*
X007228Y004390D01*
X007519Y004390D02*
X007554Y004390D01*
X007717Y004231D02*
X008316Y004231D01*
X008282Y004390D02*
X007806Y004390D01*
X008020Y004548D02*
X008313Y004548D01*
X007930Y005019D02*
X007680Y004769D01*
X007289Y004865D02*
X006429Y004865D01*
X006447Y004707D02*
X007282Y004707D01*
X007340Y004548D02*
X006447Y004548D01*
X006315Y005024D02*
X007372Y005024D01*
X007641Y005182D02*
X006157Y005182D01*
X007455Y005341D02*
X009031Y005341D01*
X009363Y005499D02*
X009364Y005499D01*
X009522Y005658D02*
X009523Y005658D01*
X009680Y005816D02*
X009681Y005816D01*
X009839Y005975D02*
X011401Y005975D01*
X011390Y005968D02*
X011356Y005934D01*
X011332Y005893D01*
X011320Y005848D01*
X011320Y005655D01*
X012082Y005655D01*
X012082Y006004D01*
X011476Y006004D01*
X011431Y005992D01*
X011390Y005968D01*
X011320Y005816D02*
X011049Y005816D01*
X011070Y005658D02*
X011320Y005658D01*
X011320Y005638D02*
X011320Y005446D01*
X011332Y005400D01*
X011356Y005359D01*
X011390Y005326D01*
X011431Y005302D01*
X011476Y005290D01*
X012082Y005290D01*
X012082Y005638D01*
X011320Y005638D01*
X011320Y005499D02*
X011070Y005499D01*
X011057Y005341D02*
X011374Y005341D01*
X011063Y005182D02*
X012860Y005182D01*
X012860Y005024D02*
X012836Y005024D01*
X012860Y005341D02*
X012807Y005341D01*
X012099Y005341D02*
X012082Y005341D01*
X012082Y005499D02*
X012099Y005499D01*
X012082Y005658D02*
X012099Y005658D01*
X012082Y005816D02*
X012099Y005816D01*
X012082Y005975D02*
X012099Y005975D01*
X012363Y006133D02*
X009997Y006133D01*
X009930Y006519D02*
X012430Y006519D01*
X013180Y005769D01*
X013180Y002769D01*
X012680Y002269D01*
X011418Y002269D01*
X011430Y002256D01*
X011751Y001854D02*
X012854Y001854D01*
X012854Y001695D02*
X012017Y001695D01*
X012153Y001537D02*
X012854Y001537D01*
X012907Y001378D02*
X012219Y001378D01*
X012220Y001220D02*
X012972Y001220D01*
X013106Y001061D02*
X012179Y001061D01*
X012078Y000903D02*
X013296Y000903D01*
X011282Y000903D02*
X011078Y000903D01*
X011179Y001061D02*
X011181Y001061D01*
X010022Y000586D02*
X016943Y000586D01*
X012916Y002012D02*
X012876Y002012D01*
X010855Y003280D02*
X008289Y003280D01*
X008310Y003439D02*
X009008Y003439D01*
X008928Y003597D02*
X008310Y003597D01*
X008310Y003613D02*
X008310Y003786D01*
X008298Y003832D01*
X008274Y003873D01*
X008241Y003907D01*
X008199Y003930D01*
X008154Y003942D01*
X007980Y003942D01*
X007980Y003613D01*
X007980Y003613D01*
X008310Y003613D01*
X008310Y003756D02*
X008928Y003756D01*
X008928Y003914D02*
X008227Y003914D01*
X007980Y003914D02*
X007980Y003914D01*
X007980Y003756D02*
X007980Y003756D01*
X007772Y004073D02*
X008438Y004073D01*
X009274Y004425D02*
X009336Y004406D01*
X009324Y004394D01*
X009318Y004406D02*
X009274Y004425D01*
X009726Y004390D02*
X010290Y004390D01*
X010290Y004231D02*
X009726Y004231D01*
X009917Y004073D02*
X009918Y004073D01*
X010161Y004073D02*
X010310Y004073D01*
X010356Y003914D02*
X010247Y003914D01*
X009918Y003914D02*
X009917Y003914D01*
X009918Y003769D02*
X009918Y003439D01*
X009917Y003439D02*
X009917Y003769D01*
X009918Y003769D01*
X009917Y003756D02*
X009918Y003756D01*
X010247Y003756D02*
X010350Y003756D01*
X010350Y003597D02*
X010247Y003597D01*
X009918Y003597D02*
X009917Y003597D01*
X009744Y003439D02*
X009627Y003439D01*
X010091Y003439D02*
X010405Y003439D01*
X010680Y003439D02*
X010680Y003439D01*
X010680Y003389D02*
X010680Y003719D01*
X010680Y003719D01*
X010680Y003389D01*
X010680Y003597D02*
X010680Y003597D01*
X011786Y003875D02*
X012091Y003875D01*
X010680Y004319D02*
X010680Y004356D01*
X010303Y004548D02*
X009726Y004548D01*
X009676Y004707D02*
X009939Y004707D01*
X009839Y004865D02*
X009726Y004865D01*
X009794Y005024D02*
X009826Y005024D01*
X009368Y005050D02*
X009336Y005006D01*
X009324Y005019D01*
X007930Y005019D01*
X007659Y005200D02*
X007659Y005200D01*
X007183Y005975D02*
X006328Y005975D01*
X006250Y006609D02*
X006410Y006609D01*
X004790Y007084D02*
X004485Y007084D01*
X004485Y007243D02*
X004822Y007243D01*
X004790Y007401D02*
X004485Y007401D01*
X004485Y007560D02*
X004790Y007560D01*
X004790Y007718D02*
X004415Y007718D01*
X004849Y007877D02*
X001023Y007877D01*
X000853Y007718D02*
X001445Y007718D01*
X001212Y007560D02*
X000756Y007560D01*
X000705Y007401D02*
X001053Y007401D01*
X000895Y007243D02*
X000690Y007243D01*
X000690Y007084D02*
X000820Y007084D01*
X000820Y006926D02*
X000690Y006926D01*
X000690Y006767D02*
X000820Y006767D01*
X000820Y006609D02*
X000690Y006609D01*
X000690Y006450D02*
X000820Y006450D01*
X000820Y006292D02*
X000690Y006292D01*
X000690Y006133D02*
X000820Y006133D01*
X000820Y005975D02*
X000690Y005975D01*
X000690Y005816D02*
X000820Y005816D01*
X000820Y005658D02*
X000690Y005658D01*
X000690Y005499D02*
X000820Y005499D01*
X000820Y005341D02*
X000690Y005341D01*
X000690Y005182D02*
X000820Y005182D01*
X000701Y005024D02*
X000690Y005024D01*
X000690Y004390D02*
X000795Y004390D01*
X000690Y004231D02*
X001050Y004231D01*
X001310Y004231D02*
X002089Y004231D01*
X001800Y004390D02*
X001565Y004390D01*
X001552Y004073D02*
X001782Y004073D01*
X001753Y003914D02*
X001637Y003914D01*
X001660Y003749D02*
X001200Y003749D01*
X001200Y003289D01*
X001218Y003289D01*
X001292Y003301D01*
X001364Y003324D01*
X001432Y003358D01*
X001493Y003403D01*
X001546Y003456D01*
X001591Y003517D01*
X001625Y003584D01*
X001648Y003656D01*
X001660Y003731D01*
X001660Y003749D01*
X001753Y003756D02*
X001200Y003756D01*
X001160Y003756D02*
X000690Y003756D01*
X000690Y003914D02*
X000723Y003914D01*
X000690Y004073D02*
X000808Y004073D01*
X000731Y003597D02*
X000690Y003597D01*
X000690Y003439D02*
X000831Y003439D01*
X000690Y003280D02*
X001753Y003280D01*
X001753Y003122D02*
X000690Y003122D01*
X000690Y002963D02*
X001753Y002963D01*
X001778Y002805D02*
X000690Y002805D01*
X001160Y003439D02*
X001200Y003439D01*
X001200Y003597D02*
X001160Y003597D01*
X001529Y003439D02*
X001753Y003439D01*
X001753Y003597D02*
X001629Y003597D01*
X003180Y003519D02*
X003345Y003519D01*
X003430Y003434D01*
X003211Y003488D02*
X003180Y003519D01*
X003211Y003488D02*
X004399Y003488D01*
X004430Y003519D02*
X005586Y003519D01*
X006877Y003597D02*
X006990Y003597D01*
X006984Y002963D02*
X006910Y002963D01*
X006984Y002805D02*
X006597Y002805D01*
X006602Y002646D02*
X007023Y002646D01*
X008542Y002012D02*
X009873Y002012D01*
X004915Y004196D02*
X004915Y004196D01*
X004915Y004416D01*
X004932Y004457D01*
X004906Y004431D01*
X004759Y004370D01*
X004601Y004370D01*
X004454Y004431D01*
X004342Y004543D01*
X004282Y004689D01*
X004282Y004848D01*
X004342Y004994D01*
X004443Y005095D01*
X004394Y005115D01*
X004379Y005130D01*
X004231Y005130D01*
X004216Y005115D01*
X004128Y005079D01*
X003732Y005079D01*
X003644Y005115D01*
X003611Y005149D01*
X003591Y005149D01*
X003474Y005197D01*
X003393Y005279D01*
X003326Y005212D01*
X003236Y005122D01*
X003228Y005119D01*
X003256Y005119D01*
X003256Y004692D01*
X003352Y004692D01*
X003352Y005119D01*
X003584Y005119D01*
X003629Y005107D01*
X003670Y005083D01*
X003704Y005050D01*
X003728Y005009D01*
X003740Y004963D01*
X003740Y004692D01*
X003352Y004692D01*
X003352Y004596D01*
X003740Y004596D01*
X003740Y004325D01*
X003728Y004279D01*
X003704Y004238D01*
X003670Y004204D01*
X003655Y004196D01*
X004915Y004196D01*
X004915Y004231D02*
X003697Y004231D01*
X003740Y004390D02*
X004554Y004390D01*
X004806Y004390D02*
X004915Y004390D01*
X004340Y004548D02*
X003740Y004548D01*
X003740Y004707D02*
X004282Y004707D01*
X004289Y004865D02*
X003740Y004865D01*
X003719Y005024D02*
X004372Y005024D01*
X003510Y005182D02*
X003296Y005182D01*
X003256Y005024D02*
X003352Y005024D01*
X003352Y004865D02*
X003256Y004865D01*
X003256Y004707D02*
X003352Y004707D01*
X003055Y005394D02*
X002230Y005394D01*
X002230Y005769D01*
X003055Y005394D02*
X003355Y005694D01*
X003355Y005769D02*
X003655Y005469D01*
X003930Y005469D01*
X003949Y005450D01*
X004661Y005450D01*
X005180Y007569D02*
X005930Y007569D01*
X006261Y007877D02*
X006349Y007877D01*
X006680Y007569D02*
X007430Y007569D01*
X003445Y007718D02*
X003415Y007718D01*
X002445Y007718D02*
X002415Y007718D01*
X009368Y005050D02*
X009886Y005569D01*
X010680Y005569D01*
X011134Y005024D02*
X011345Y005024D01*
X013427Y005975D02*
X013532Y005975D01*
X012882Y006609D02*
X012793Y006609D01*
X012854Y006767D02*
X012634Y006767D01*
D23*
X006805Y003769D03*
X006680Y003269D03*
X006711Y002675D03*
X006711Y002363D03*
X005149Y002363D03*
X005149Y002675D03*
X005180Y001769D03*
X005930Y001300D03*
X006305Y001456D03*
X005555Y000863D03*
X001430Y002019D03*
X003930Y004519D03*
D24*
X004680Y004769D02*
X005255Y004769D01*
X005305Y004819D01*
X007380Y003613D02*
X007374Y003525D01*
X007374Y003513D02*
X007380Y003613D01*
X007430Y003569D01*
X007993Y003000D02*
X007974Y002956D01*
X007993Y003000D02*
X008055Y002925D01*
X008243Y002738D01*
X008243Y001644D01*
X007652Y001053D01*
X007555Y001053D01*
X006599Y001938D02*
X006680Y002019D01*
X006680Y002331D01*
X006711Y002363D01*
X005536Y001938D02*
X005349Y001938D01*
X005261Y003099D02*
X005536Y003099D01*
X005733Y003372D02*
X005586Y003519D01*
D25*
X005774Y003956D03*
X007374Y004019D03*
X008680Y004394D03*
X007680Y004769D03*
X006680Y006019D03*
X005930Y006019D03*
X004680Y006519D03*
X004680Y004769D03*
X010180Y002269D03*
X011180Y003519D03*
D26*
X006511Y003099D02*
X006324Y003099D01*
X006324Y001938D02*
X006599Y001938D01*
D27*
X005555Y001456D02*
X005555Y000863D01*
X006743Y000863D01*
X006930Y001050D01*
X007552Y001050D01*
X007555Y001053D01*
X009107Y001053D01*
X009180Y001126D01*
X010680Y001269D02*
X011430Y002019D01*
X011430Y002256D01*
X010818Y002269D02*
X010180Y002269D01*
X010086Y002675D02*
X009194Y002675D01*
X009180Y002661D01*
X010086Y002675D02*
X010302Y002891D01*
X011677Y002891D01*
X011430Y003519D02*
X011180Y003519D01*
X011430Y003519D02*
X011786Y003875D01*
X010986Y004662D02*
X010680Y004356D01*
X010986Y004662D02*
X010680Y004969D01*
X010186Y004969D01*
X010986Y004662D02*
X012091Y004662D01*
X009324Y004394D02*
X008680Y004394D01*
X009318Y004406D02*
X009318Y003769D01*
X007374Y003525D02*
X007374Y004019D01*
X007374Y003513D02*
X007374Y002956D01*
X002556Y004644D02*
X002055Y004644D01*
X001930Y004769D01*
X001180Y004769D01*
X001180Y007019D01*
X001430Y007269D01*
X001880Y007269D01*
X001961Y007269D01*
X002024Y007331D01*
X002918Y007331D01*
X002930Y007319D01*
X003930Y007319D01*
X003930Y006719D02*
X003930Y006069D01*
X003355Y005769D02*
X003355Y005694D01*
X002930Y006019D02*
X002755Y005844D01*
X002755Y005769D01*
X002930Y006019D02*
X002930Y006719D01*
X001930Y006719D02*
X001930Y006113D01*
X001630Y005813D01*
X001630Y005769D01*
X002443Y004769D02*
X002556Y004644D01*
X004661Y005450D02*
X004680Y005469D01*
X002024Y007300D02*
X002024Y007331D01*
X001930Y007319D02*
X001880Y007269D01*
D28*
X005349Y001938D02*
X005180Y001769D01*
D29*
X004430Y001769D01*
X003430Y001603D02*
X001845Y001603D01*
X001430Y002019D01*
X009180Y002661D02*
X009198Y002644D01*
X011677Y002891D02*
X012091Y002891D01*
D30*
X006680Y003269D02*
X006511Y003099D01*
D31*
X006127Y003099D02*
X006127Y003653D01*
X005930Y003550D02*
X005774Y003706D01*
X005774Y003956D01*
X005568Y003956D01*
X005305Y004219D01*
X005930Y003550D02*
X005930Y003099D01*
X005733Y003099D02*
X005733Y003372D01*
X004430Y003519D02*
X004399Y003488D01*
X005733Y001938D02*
X005733Y001634D01*
X005555Y001456D01*
X005930Y001300D02*
X005930Y001938D01*
X006127Y001938D02*
X006127Y001634D01*
X006305Y001456D01*
M02*
