G75*
G70*
%OFA0B0*%
%FSLAX24Y24*%
%IPPOS*%
%LPD*%
%AMOC8*
5,1,8,0,0,1.08239X$1,22.5*
%
%ADD10C,0.0080*%
%ADD11C,0.0110*%
%ADD12C,0.0050*%
%ADD13C,0.0060*%
%ADD14C,0.0100*%
%ADD15C,0.0070*%
%ADD16C,0.0040*%
%ADD17C,0.0118*%
D10*
X000930Y003269D02*
X001430Y003269D01*
X001680Y003519D01*
X001680Y004019D01*
X001430Y004269D01*
X001680Y004519D01*
X001680Y005019D01*
X001430Y005269D01*
X000930Y005269D01*
X000680Y005019D01*
X000680Y004519D01*
X000930Y004269D01*
X000680Y004019D01*
X000680Y003519D01*
X000930Y003269D01*
X008780Y007056D02*
X011180Y007056D01*
X011211Y007061D01*
X011241Y007069D01*
X011269Y007080D01*
X011297Y007094D01*
X011322Y007112D01*
X011346Y007132D01*
X011367Y007154D01*
X011385Y007179D01*
X011401Y007206D01*
X011413Y007234D01*
X011423Y007264D01*
X011429Y007294D01*
X011431Y007325D01*
X011430Y007356D01*
X011428Y007386D01*
X011423Y007416D01*
X011414Y007445D01*
X011401Y007472D01*
X011386Y007498D01*
X011367Y007522D01*
X011346Y007543D01*
X011322Y007562D01*
X011296Y007577D01*
X011269Y007590D01*
X011240Y007599D01*
X011210Y007604D01*
X011180Y007606D01*
X008830Y007606D01*
X008799Y007607D01*
X008768Y007605D01*
X008738Y007599D01*
X008708Y007590D01*
X008680Y007577D01*
X008653Y007561D01*
X008628Y007543D01*
X008606Y007522D01*
X008586Y007498D01*
X008568Y007473D01*
X008554Y007445D01*
X008543Y007416D01*
X008535Y007387D01*
X008530Y007356D01*
X008529Y007325D01*
X008531Y007294D01*
X008537Y007264D01*
X008546Y007234D01*
X008559Y007206D01*
X008575Y007179D01*
X008593Y007154D01*
X008614Y007132D01*
X008638Y007112D01*
X008663Y007094D01*
X008691Y007080D01*
X008720Y007069D01*
X008750Y007061D01*
X008780Y007056D01*
X012230Y006869D02*
X012230Y005969D01*
X012230Y006869D02*
X012930Y006869D01*
X014730Y006869D02*
X017830Y006869D01*
X017830Y001669D01*
X014730Y001669D01*
X012930Y001669D02*
X012230Y001669D01*
X012230Y002569D01*
X011930Y001769D02*
X011430Y001769D01*
X011180Y001519D01*
X010930Y001769D01*
X010430Y001769D01*
X010180Y001519D01*
X010180Y001019D01*
X010430Y000769D01*
X010930Y000769D01*
X011180Y001019D01*
X011430Y000769D01*
X011930Y000769D01*
X012180Y001019D01*
X012180Y001519D01*
X011930Y001769D01*
D11*
X001352Y005567D02*
X001058Y005567D01*
X001205Y005714D02*
X001205Y005420D01*
X001215Y003089D02*
X001215Y002782D01*
D12*
X001993Y002834D02*
X001993Y002204D01*
X004867Y002204D02*
X004867Y002834D01*
X009899Y000675D02*
X010727Y000675D01*
X010601Y000575D02*
X010643Y000534D01*
X010643Y000367D01*
X010601Y000325D01*
X010518Y000325D01*
X010476Y000367D01*
X010476Y000534D01*
X010518Y000575D01*
X010601Y000575D01*
X010367Y000534D02*
X010367Y000492D01*
X010325Y000450D01*
X010200Y000450D01*
X010200Y000325D02*
X010200Y000575D01*
X010325Y000575D01*
X010367Y000534D01*
X010325Y000450D02*
X010367Y000408D01*
X010367Y000367D01*
X010325Y000325D01*
X010200Y000325D01*
X010091Y000325D02*
X009924Y000325D01*
X009924Y000575D01*
X010993Y000675D02*
X012374Y000675D01*
X012248Y000575D02*
X012122Y000575D01*
X012122Y000325D01*
X012248Y000325D01*
X012289Y000367D01*
X012289Y000534D01*
X012248Y000575D01*
X012013Y000534D02*
X011971Y000575D01*
X011888Y000575D01*
X011846Y000534D01*
X011846Y000367D01*
X011888Y000325D01*
X011971Y000325D01*
X012013Y000367D01*
X012013Y000534D01*
X011737Y000534D02*
X011737Y000367D01*
X011695Y000325D01*
X011612Y000325D01*
X011570Y000367D01*
X011570Y000534D01*
X011612Y000575D01*
X011695Y000575D01*
X011737Y000534D01*
X011461Y000534D02*
X011419Y000575D01*
X011335Y000575D01*
X011294Y000534D01*
X011294Y000367D01*
X011335Y000325D01*
X011419Y000325D01*
X011461Y000367D01*
X011461Y000450D01*
X011377Y000450D01*
X011184Y000450D02*
X011143Y000408D01*
X011018Y000408D01*
X011018Y000325D02*
X011018Y000575D01*
X011143Y000575D01*
X011184Y000534D01*
X011184Y000450D01*
X003687Y006054D02*
X003646Y006013D01*
X003562Y006013D01*
X003521Y006054D01*
X003521Y006138D02*
X003604Y006179D01*
X003646Y006179D01*
X003687Y006138D01*
X003687Y006054D01*
X003521Y006138D02*
X003521Y006263D01*
X003687Y006263D01*
X003555Y006394D02*
X003493Y006331D01*
X003411Y006263D02*
X003411Y006221D01*
X003244Y006054D01*
X003244Y006013D01*
X003148Y006013D02*
X003106Y006013D01*
X003106Y006054D01*
X003148Y006054D01*
X003148Y006013D01*
X002997Y006054D02*
X002997Y006096D01*
X002955Y006138D01*
X002913Y006138D01*
X002955Y006138D02*
X002997Y006179D01*
X002997Y006221D01*
X002955Y006263D01*
X002872Y006263D01*
X002830Y006221D01*
X002625Y006221D02*
X002583Y006263D01*
X002500Y006263D01*
X002458Y006221D01*
X002349Y006221D02*
X002307Y006263D01*
X002224Y006263D01*
X002182Y006221D01*
X002265Y006138D02*
X002307Y006138D01*
X002349Y006096D01*
X002349Y006054D01*
X002307Y006013D01*
X002224Y006013D01*
X002182Y006054D01*
X002085Y006054D02*
X002085Y006013D01*
X002044Y006013D01*
X002044Y006054D01*
X002085Y006054D01*
X001934Y006013D02*
X001768Y006013D01*
X001934Y006179D01*
X001934Y006221D01*
X001893Y006263D01*
X001809Y006263D01*
X001768Y006221D01*
X001562Y006221D02*
X001562Y006263D01*
X001396Y006263D01*
X001493Y006331D02*
X001555Y006394D01*
X001562Y006221D02*
X001396Y006054D01*
X001396Y006013D01*
X001286Y006013D02*
X001119Y006013D01*
X001203Y006013D02*
X001203Y006263D01*
X001119Y006179D01*
X001023Y006054D02*
X001023Y006013D01*
X000981Y006013D01*
X000981Y006054D01*
X001023Y006054D01*
X000872Y006013D02*
X000705Y006013D01*
X000788Y006013D02*
X000788Y006263D01*
X000705Y006179D01*
X002307Y006138D02*
X002349Y006179D01*
X002349Y006221D01*
X002493Y006331D02*
X002555Y006394D01*
X002625Y006221D02*
X002625Y006179D01*
X002583Y006138D01*
X002625Y006096D01*
X002625Y006054D01*
X002583Y006013D01*
X002500Y006013D01*
X002458Y006054D01*
X002541Y006138D02*
X002583Y006138D01*
X002830Y006054D02*
X002872Y006013D01*
X002955Y006013D01*
X002997Y006054D01*
X003244Y006263D02*
X003411Y006263D01*
X004635Y006888D02*
X004905Y006888D01*
X004905Y007068D01*
X004905Y007182D02*
X004635Y007182D01*
X004635Y007317D01*
X004680Y007362D01*
X004725Y007362D01*
X004770Y007317D01*
X004770Y007182D01*
X004905Y007182D02*
X004905Y007317D01*
X004860Y007362D01*
X004815Y007362D01*
X004770Y007317D01*
X004770Y007477D02*
X004770Y007657D01*
X004725Y007657D02*
X004905Y007657D01*
X004725Y007657D02*
X004635Y007567D01*
X004725Y007477D01*
X004905Y007477D01*
X004352Y007744D02*
X004314Y007782D01*
X004314Y007936D01*
X004352Y007897D02*
X004275Y007897D01*
X004171Y007859D02*
X004171Y007820D01*
X004018Y007820D01*
X004018Y007782D02*
X004018Y007859D01*
X004056Y007897D01*
X004133Y007897D01*
X004171Y007859D01*
X004056Y007744D02*
X004018Y007782D01*
X004056Y007744D02*
X004133Y007744D01*
X003913Y007782D02*
X003875Y007744D01*
X003798Y007744D01*
X003760Y007782D01*
X003798Y007859D02*
X003875Y007859D01*
X003913Y007820D01*
X003913Y007782D01*
X003798Y007859D02*
X003760Y007897D01*
X003760Y007936D01*
X003798Y007974D01*
X003875Y007974D01*
X003913Y007936D01*
X003407Y007897D02*
X003330Y007897D01*
X003368Y007936D02*
X003368Y007782D01*
X003407Y007744D01*
X003235Y007744D02*
X003197Y007782D01*
X003197Y007936D01*
X003235Y007897D02*
X003158Y007897D01*
X003054Y007859D02*
X003054Y007744D01*
X002939Y007744D01*
X002900Y007782D01*
X002939Y007820D01*
X003054Y007820D01*
X003054Y007859D02*
X003015Y007897D01*
X002939Y007897D01*
X002796Y007897D02*
X002758Y007859D01*
X002643Y007859D01*
X002758Y007859D02*
X002796Y007820D01*
X002796Y007782D01*
X002758Y007744D01*
X002643Y007744D01*
X002643Y007974D01*
X002758Y007974D01*
X002796Y007936D01*
X002796Y007897D01*
X002280Y007897D02*
X002280Y007782D01*
X002242Y007744D01*
X002204Y007782D01*
X002165Y007744D01*
X002127Y007782D01*
X002127Y007897D01*
X002023Y007859D02*
X001984Y007897D01*
X001907Y007897D01*
X001869Y007859D01*
X001869Y007782D01*
X001907Y007744D01*
X001984Y007744D01*
X002023Y007782D01*
X002023Y007859D01*
X001765Y007744D02*
X001611Y007744D01*
X001611Y007974D01*
X007697Y007612D02*
X007697Y007477D01*
X007968Y007477D01*
X007877Y007477D02*
X007877Y007612D01*
X007832Y007657D01*
X007742Y007657D01*
X007697Y007612D01*
X007877Y007567D02*
X007968Y007657D01*
X007968Y007362D02*
X007697Y007362D01*
X007877Y007272D02*
X007968Y007362D01*
X007877Y007272D02*
X007968Y007182D01*
X007697Y007182D01*
X007742Y007068D02*
X007697Y007023D01*
X007697Y006888D01*
X007968Y006888D01*
X007877Y006888D02*
X007877Y007023D01*
X007832Y007068D01*
X007742Y007068D01*
D13*
X000958Y000894D02*
X000751Y000894D01*
X000648Y000997D01*
X000751Y001101D01*
X000958Y001101D01*
X000958Y001235D02*
X000958Y001442D01*
X000803Y001442D01*
X000854Y001338D01*
X000854Y001286D01*
X000803Y001235D01*
X000699Y001235D01*
X000648Y001286D01*
X000648Y001390D01*
X000699Y001442D01*
X000699Y001560D02*
X000648Y001560D01*
X000648Y001612D01*
X000699Y001612D01*
X000699Y001560D01*
X000803Y001746D02*
X000803Y001953D01*
X000958Y001797D01*
X000648Y001797D01*
X000803Y002086D02*
X000803Y002293D01*
X000854Y002427D02*
X000906Y002427D01*
X000958Y002479D01*
X000958Y002582D01*
X000906Y002634D01*
X000854Y002427D02*
X000648Y002634D01*
X000648Y002427D01*
X000648Y002753D02*
X000648Y002804D01*
X000699Y002804D01*
X000699Y002753D01*
X000648Y002753D01*
X000648Y002938D02*
X000648Y003145D01*
X000648Y003042D02*
X000958Y003042D01*
X000854Y003145D01*
X001630Y006369D02*
X002230Y006369D01*
X002247Y006371D01*
X002264Y006375D01*
X002280Y006382D01*
X002294Y006392D01*
X002307Y006405D01*
X002317Y006419D01*
X002324Y006435D01*
X002328Y006452D01*
X002330Y006469D01*
X002330Y007569D01*
X002328Y007586D01*
X002324Y007603D01*
X002317Y007619D01*
X002307Y007633D01*
X002294Y007646D01*
X002280Y007656D01*
X002264Y007663D01*
X002247Y007667D01*
X002230Y007669D01*
X001630Y007669D01*
X001613Y007667D01*
X001596Y007663D01*
X001580Y007656D01*
X001566Y007646D01*
X001553Y007633D01*
X001543Y007619D01*
X001536Y007603D01*
X001532Y007586D01*
X001530Y007569D01*
X001530Y006469D01*
X001532Y006452D01*
X001536Y006435D01*
X001543Y006419D01*
X001553Y006405D01*
X001566Y006392D01*
X001580Y006382D01*
X001596Y006375D01*
X001613Y006371D01*
X001630Y006369D01*
X002530Y006469D02*
X002530Y007569D01*
X002532Y007586D01*
X002536Y007603D01*
X002543Y007619D01*
X002553Y007633D01*
X002566Y007646D01*
X002580Y007656D01*
X002596Y007663D01*
X002613Y007667D01*
X002630Y007669D01*
X003230Y007669D01*
X003247Y007667D01*
X003264Y007663D01*
X003280Y007656D01*
X003294Y007646D01*
X003307Y007633D01*
X003317Y007619D01*
X003324Y007603D01*
X003328Y007586D01*
X003330Y007569D01*
X003330Y006469D01*
X003328Y006452D01*
X003324Y006435D01*
X003317Y006419D01*
X003307Y006405D01*
X003294Y006392D01*
X003280Y006382D01*
X003264Y006375D01*
X003247Y006371D01*
X003230Y006369D01*
X002630Y006369D01*
X002613Y006371D01*
X002596Y006375D01*
X002580Y006382D01*
X002566Y006392D01*
X002553Y006405D01*
X002543Y006419D01*
X002536Y006435D01*
X002532Y006452D01*
X002530Y006469D01*
X003530Y006469D02*
X003530Y007569D01*
X003532Y007586D01*
X003536Y007603D01*
X003543Y007619D01*
X003553Y007633D01*
X003566Y007646D01*
X003580Y007656D01*
X003596Y007663D01*
X003613Y007667D01*
X003630Y007669D01*
X004230Y007669D01*
X004247Y007667D01*
X004264Y007663D01*
X004280Y007656D01*
X004294Y007646D01*
X004307Y007633D01*
X004317Y007619D01*
X004324Y007603D01*
X004328Y007586D01*
X004330Y007569D01*
X004330Y006469D01*
X004328Y006452D01*
X004324Y006435D01*
X004317Y006419D01*
X004307Y006405D01*
X004294Y006392D01*
X004280Y006382D01*
X004264Y006375D01*
X004247Y006371D01*
X004230Y006369D01*
X003630Y006369D01*
X003613Y006371D01*
X003596Y006375D01*
X003580Y006382D01*
X003566Y006392D01*
X003553Y006405D01*
X003543Y006419D01*
X003536Y006435D01*
X003532Y006452D01*
X003530Y006469D01*
X008210Y006605D02*
X008267Y006549D01*
X008380Y006549D01*
X008437Y006605D01*
X008437Y006889D01*
X008578Y006832D02*
X008578Y006776D01*
X008635Y006719D01*
X008748Y006719D01*
X008805Y006662D01*
X008805Y006605D01*
X008748Y006549D01*
X008635Y006549D01*
X008578Y006605D01*
X008578Y006832D02*
X008635Y006889D01*
X008748Y006889D01*
X008805Y006832D01*
X008947Y006889D02*
X009117Y006889D01*
X009173Y006832D01*
X009173Y006776D01*
X009117Y006719D01*
X008947Y006719D01*
X009117Y006719D02*
X009173Y006662D01*
X009173Y006605D01*
X009117Y006549D01*
X008947Y006549D01*
X008947Y006889D01*
X008850Y007226D02*
X008850Y007393D01*
X008850Y007310D02*
X008934Y007393D01*
X008975Y007393D01*
X009088Y007351D02*
X009088Y007268D01*
X009130Y007226D01*
X009213Y007226D01*
X009255Y007310D02*
X009088Y007310D01*
X009088Y007351D02*
X009130Y007393D01*
X009213Y007393D01*
X009255Y007351D01*
X009255Y007310D01*
X009374Y007310D02*
X009540Y007310D01*
X009540Y007351D01*
X009499Y007393D01*
X009415Y007393D01*
X009374Y007351D01*
X009374Y007268D01*
X009415Y007226D01*
X009499Y007226D01*
X009701Y007268D02*
X009742Y007226D01*
X009701Y007268D02*
X009701Y007435D01*
X009742Y007393D02*
X009659Y007393D01*
X009849Y007393D02*
X009849Y007226D01*
X009849Y007310D02*
X009933Y007393D01*
X009974Y007393D01*
X010087Y007351D02*
X010087Y007268D01*
X010129Y007226D01*
X010212Y007226D01*
X010254Y007268D01*
X010254Y007351D01*
X010212Y007393D01*
X010129Y007393D01*
X010087Y007351D01*
X010373Y007393D02*
X010373Y007226D01*
X010539Y007226D02*
X010539Y007351D01*
X010498Y007393D01*
X010373Y007393D01*
X010658Y007393D02*
X010700Y007393D01*
X010700Y007226D01*
X010658Y007226D02*
X010742Y007226D01*
X010848Y007268D02*
X010890Y007226D01*
X011015Y007226D01*
X011134Y007226D02*
X011259Y007226D01*
X011301Y007268D01*
X011259Y007310D01*
X011176Y007310D01*
X011134Y007351D01*
X011176Y007393D01*
X011301Y007393D01*
X011015Y007393D02*
X010890Y007393D01*
X010848Y007351D01*
X010848Y007268D01*
X010700Y007476D02*
X010700Y007518D01*
X009910Y006832D02*
X009853Y006889D01*
X009683Y006889D01*
X009683Y006549D01*
X009853Y006549D01*
X009910Y006605D01*
X009910Y006662D01*
X009853Y006719D01*
X009683Y006719D01*
X009853Y006719D02*
X009910Y006776D01*
X009910Y006832D01*
X010052Y006719D02*
X010052Y006605D01*
X010108Y006549D01*
X010222Y006549D01*
X010278Y006605D01*
X010278Y006719D01*
X010222Y006776D01*
X010108Y006776D01*
X010052Y006719D01*
X010420Y006719D02*
X010420Y006605D01*
X010477Y006549D01*
X010590Y006549D01*
X010647Y006605D01*
X010647Y006719D01*
X010590Y006776D01*
X010477Y006776D01*
X010420Y006719D01*
X010788Y006719D02*
X010845Y006776D01*
X011015Y006776D01*
X011157Y006776D02*
X011270Y006776D01*
X011213Y006832D02*
X011213Y006605D01*
X011270Y006549D01*
X011402Y006605D02*
X011402Y006719D01*
X011459Y006776D01*
X011572Y006776D01*
X011629Y006719D01*
X011629Y006662D01*
X011402Y006662D01*
X011402Y006605D02*
X011459Y006549D01*
X011572Y006549D01*
X011770Y006549D02*
X011770Y006776D01*
X011884Y006776D02*
X011941Y006776D01*
X011884Y006776D02*
X011770Y006662D01*
X011015Y006605D02*
X010958Y006549D01*
X010788Y006549D01*
X010845Y006662D02*
X010788Y006719D01*
X010845Y006662D02*
X010958Y006662D01*
X011015Y006605D01*
X008743Y007351D02*
X008660Y007351D01*
X008702Y007435D02*
X008743Y007476D01*
X008702Y007435D02*
X008702Y007226D01*
X008210Y006889D02*
X008210Y006605D01*
D14*
X006780Y007219D02*
X006780Y007319D01*
X006580Y007319D02*
X006580Y007219D01*
X006030Y007219D02*
X006030Y007319D01*
X005830Y007319D02*
X005830Y007219D01*
X003105Y005869D02*
X003005Y005869D01*
X003005Y005669D02*
X003105Y005669D01*
X003830Y005719D02*
X003830Y005819D01*
X004030Y005819D02*
X004030Y005719D01*
X004580Y005719D02*
X004580Y005819D01*
X004780Y005819D02*
X004780Y005719D01*
X005205Y004569D02*
X005205Y004469D01*
X005405Y004469D02*
X005405Y004569D01*
X007630Y003713D02*
X007730Y003713D01*
X007730Y003513D02*
X007630Y003513D01*
X007624Y003056D02*
X007724Y003056D01*
X007724Y002856D02*
X007624Y002856D01*
X009568Y003669D02*
X009668Y003669D01*
X009668Y003869D02*
X009568Y003869D01*
X010580Y003969D02*
X010580Y004069D01*
X010780Y004069D02*
X010780Y003969D01*
X009436Y004656D02*
X009436Y004756D01*
X009236Y004756D02*
X009236Y004656D01*
X010580Y005219D02*
X010580Y005319D01*
X010780Y005319D02*
X010780Y005219D01*
X011068Y002369D02*
X011168Y002369D01*
X011168Y002169D02*
X011068Y002169D01*
X001980Y005669D02*
X001880Y005669D01*
X001880Y005869D02*
X001980Y005869D01*
D15*
X005010Y007199D02*
X005180Y007199D01*
X005030Y007339D01*
X005330Y007339D01*
X005180Y007198D01*
X005180Y007199D02*
X005350Y007199D01*
X007260Y007199D02*
X007430Y007199D01*
X007280Y007339D01*
X007580Y007339D01*
X007430Y007198D01*
X007430Y007199D02*
X007600Y007199D01*
D16*
X006521Y003109D02*
X006422Y003109D01*
X006521Y003109D02*
X006521Y002972D01*
X005438Y003109D02*
X005339Y003109D01*
X005339Y002972D01*
X005339Y002066D02*
X005339Y001928D01*
X005438Y001928D01*
X006422Y001928D02*
X006521Y001928D01*
X006521Y002066D01*
D17*
X005369Y001820D03*
M02*
